<svg width="24" height="24" viewBox="0 0 24 24" fill="none" xmlns="http://www.w3.org/2000/svg">
<path d="M21.1255 0.834808H2.87437C2.35356 0.834808 1.85408 1.0417 1.48581 1.40997C1.11754 1.77824 0.910645 2.27772 0.910645 2.79854V8.48295C0.911132 8.86031 1.02034 9.22954 1.2252 9.54646C1.43006 9.86338 1.72189 10.1146 2.06578 10.2699L9.29692 13.5563C8.22622 14.1555 7.3845 15.0928 6.90358 16.2216C6.42267 17.3503 6.32973 18.6067 6.63933 19.794C6.94892 20.9812 7.64356 22.0322 8.61445 22.7824C9.58533 23.5326 10.7776 23.9395 12.0045 23.9395C13.2315 23.9395 14.4238 23.5326 15.3947 22.7824C16.3655 22.0322 17.0602 20.9812 17.3698 19.794C17.6794 18.6067 17.5864 17.3503 17.1055 16.2216C16.6246 15.0928 15.7829 14.1555 14.7122 13.5563L21.9341 10.2699C22.278 10.1146 22.5698 9.86338 22.7747 9.54646C22.9795 9.22954 23.0887 8.86031 23.0892 8.48295V2.79854C23.0892 2.27772 22.8823 1.77824 22.5141 1.40997C22.1458 1.0417 21.6463 0.834808 21.1255 0.834808ZM15.6964 2.68302V11.0774L11.9999 12.7569L8.3035 11.0774V2.68302H15.6964ZM2.75886 8.48295V2.79854C2.75886 2.7679 2.77103 2.73852 2.79269 2.71686C2.81435 2.69519 2.84374 2.68302 2.87437 2.68302H6.45529V10.2364L2.82701 8.58807C2.80674 8.57896 2.78954 8.56419 2.77745 8.54555C2.76536 8.52691 2.75891 8.50517 2.75886 8.48295ZM11.9999 22.0893C11.2688 22.0893 10.5542 21.8725 9.94631 21.4663C9.33843 21.0601 8.86465 20.4828 8.58488 19.8074C8.3051 19.132 8.2319 18.3887 8.37453 17.6717C8.51715 16.9547 8.86921 16.296 9.38616 15.7791C9.90312 15.2621 10.5618 14.9101 11.2788 14.7674C11.9958 14.6248 12.7391 14.698 13.4145 14.9778C14.0899 15.2576 14.6672 15.7313 15.0734 16.3392C15.4796 16.9471 15.6964 17.6618 15.6964 18.3928C15.6964 19.3732 15.3069 20.3134 14.6137 21.0066C13.9205 21.6998 12.9803 22.0893 11.9999 22.0893ZM21.241 8.48295C21.241 8.50517 21.2345 8.52691 21.2224 8.54555C21.2103 8.56419 21.1931 8.57896 21.1728 8.58807L17.5446 10.2364V2.68302H21.1255C21.1561 2.68302 21.1855 2.69519 21.2072 2.71686C21.2288 2.73852 21.241 2.7679 21.241 2.79854V8.48295Z" fill="#FCFCFD"/>
</svg>
