<svg width="30" height="30" viewBox="0 0 30 30" fill="none" xmlns="http://www.w3.org/2000/svg">
<path d="M21.4382 4.88135H8.55824C6.85081 4.88317 5.21383 5.56226 4.00649 6.7696C2.79915 7.97694 2.12007 9.61391 2.11824 11.3213V22.3613C2.11824 22.8493 2.3121 23.3174 2.65716 23.6624C3.00223 24.0075 3.47024 24.2013 3.95824 24.2013H26.0382C26.5262 24.2013 26.9942 24.0075 27.3393 23.6624C27.6844 23.3174 27.8782 22.8493 27.8782 22.3613V11.3213C27.8764 9.61391 27.1973 7.97694 25.99 6.7696C24.7826 5.56226 23.1457 4.88317 21.4382 4.88135ZM26.0382 11.3213V12.2413H22.3582V6.81335C23.3966 7.02684 24.3295 7.59178 24.9999 8.41296C25.6702 9.23413 26.0369 10.2613 26.0382 11.3213ZM15.9182 15.9213H14.0782V12.2413H15.9182V15.9213ZM13.1582 17.7613H16.8382C17.0822 17.7613 17.3162 17.6644 17.4888 17.4919C17.6613 17.3194 17.7582 17.0853 17.7582 16.8413V14.0813H20.5182V22.3613H9.47824V14.0813H12.2382V16.8413C12.2382 17.0853 12.3352 17.3194 12.5077 17.4919C12.6802 17.6644 12.9142 17.7613 13.1582 17.7613ZM17.7582 12.2413V11.3213C17.7582 11.0773 17.6613 10.8433 17.4888 10.6708C17.3162 10.4983 17.0822 10.4013 16.8382 10.4013H13.1582C12.9142 10.4013 12.6802 10.4983 12.5077 10.6708C12.3352 10.8433 12.2382 11.0773 12.2382 11.3213V12.2413H9.47824V6.72135H20.5182V12.2413H17.7582ZM7.63824 6.81335V12.2413H3.95824V11.3213C3.95953 10.2613 4.32626 9.23413 4.99661 8.41296C5.66695 7.59178 6.59992 7.02684 7.63824 6.81335ZM3.95824 14.0813H7.63824V22.3613H3.95824V14.0813ZM26.0382 22.3613H22.3582V14.0813H26.0382V22.3613Z" fill="#FCFCFD"/>
</svg>
