<svg width="30" height="30" viewBox="0 0 30 30" fill="none" xmlns="http://www.w3.org/2000/svg">
<path d="M3.12828 14.5355C3.22494 14.608 3.33492 14.6608 3.45196 14.6908C3.56899 14.7207 3.69079 14.7274 3.81039 14.7103C3.92999 14.6932 4.04506 14.6527 4.14902 14.5912C4.25298 14.5296 4.34379 14.4482 4.41628 14.3515C4.9733 13.6088 5.69559 13.006 6.52595 12.5909C7.3563 12.1757 8.27192 11.9595 9.20028 11.9595C10.1286 11.9595 11.0443 12.1757 11.8746 12.5909C12.705 13.006 13.4273 13.6088 13.9843 14.3515C14.1309 14.5466 14.3489 14.6754 14.5904 14.7097C14.832 14.744 15.0772 14.6809 15.2723 14.5344C15.3418 14.4827 15.4034 14.4211 15.4551 14.3515C16.0122 13.6088 16.7344 13.006 17.5648 12.5909C18.3952 12.1757 19.3108 11.9595 20.2391 11.9595C21.1675 11.9595 22.0831 12.1757 22.9135 12.5909C23.7438 13.006 24.4661 13.6088 25.0231 14.3515C25.1697 14.5467 25.3878 14.6757 25.6294 14.7101C25.8711 14.7445 26.1165 14.6815 26.3117 14.535C26.5069 14.3884 26.6359 14.1703 26.6703 13.9287C26.7047 13.687 26.6417 13.4416 26.4951 13.2464C25.6808 12.1547 24.5948 11.2951 23.3453 10.7532C24.0303 10.1277 24.5103 9.30981 24.7221 8.40673C24.934 7.50364 24.8679 6.55759 24.5325 5.69275C24.1971 4.82791 23.608 4.08468 22.8426 3.5606C22.0773 3.03652 21.1713 2.75607 20.2437 2.75607C19.3161 2.75607 18.4102 3.03652 17.6448 3.5606C16.8794 4.08468 16.2904 4.82791 15.955 5.69275C15.6196 6.55759 15.5535 7.50364 15.7653 8.40673C15.9772 9.30981 16.4571 10.1277 17.1422 10.7532C16.2399 11.1433 15.4203 11.7018 14.7272 12.3988C14.034 11.7018 13.2144 11.1433 12.3122 10.7532C12.9972 10.1277 13.4772 9.30981 13.689 8.40673C13.9009 7.50364 13.8348 6.55759 13.4994 5.69275C13.164 4.82791 12.5749 4.08468 11.8095 3.5606C11.0442 3.03652 10.1382 2.75607 9.21063 2.75607C8.28303 2.75607 7.37709 3.03652 6.61172 3.5606C5.84635 4.08468 5.2573 4.82791 4.92189 5.69275C4.58647 6.55759 4.52036 7.50364 4.73223 8.40673C4.9441 9.30981 5.42404 10.1277 6.10908 10.7532C4.85403 11.2933 3.76274 12.1534 2.94428 13.2475C2.87179 13.3442 2.81905 13.4542 2.78907 13.5712C2.75908 13.6882 2.75244 13.81 2.76953 13.9296C2.78662 14.0492 2.82709 14.1643 2.88865 14.2683C2.9502 14.3722 3.03163 14.463 3.12828 14.5355ZM20.2403 4.59954C20.7862 4.59954 21.3198 4.76141 21.7737 5.06468C22.2275 5.36795 22.5813 5.79901 22.7902 6.30333C22.9991 6.80766 23.0537 7.3626 22.9473 7.89799C22.8408 8.43337 22.5779 8.92516 22.1919 9.31115C21.8059 9.69715 21.3141 9.96001 20.7787 10.0665C20.2433 10.173 19.6884 10.1183 19.1841 9.90945C18.6798 9.70055 18.2487 9.34679 17.9454 8.89291C17.6422 8.43903 17.4803 7.90541 17.4803 7.35954C17.4803 6.62754 17.7711 5.92552 18.2887 5.40792C18.8063 4.89032 19.5083 4.59954 20.2403 4.59954ZM9.20028 4.59954C9.74616 4.59954 10.2798 4.76141 10.7337 5.06468C11.1875 5.36795 11.5413 5.79901 11.7502 6.30333C11.9591 6.80766 12.0137 7.3626 11.9073 7.89799C11.8008 8.43337 11.5379 8.92516 11.1519 9.31115C10.7659 9.69715 10.2741 9.96001 9.73873 10.0665C9.20335 10.173 8.6484 10.1183 8.14408 9.90945C7.63975 9.70055 7.2087 9.34679 6.90543 8.89291C6.60216 8.43903 6.44028 7.90541 6.44028 7.35954C6.44028 6.62754 6.73107 5.92552 7.24867 5.40792C7.76627 4.89032 8.46829 4.59954 9.20028 4.59954ZM23.3453 22.7132C24.0303 22.0877 24.5103 21.2698 24.7221 20.3667C24.934 19.4636 24.8679 18.5176 24.5325 17.6528C24.1971 16.7879 23.608 16.0447 22.8426 15.5206C22.0773 14.9965 21.1713 14.7161 20.2437 14.7161C19.3161 14.7161 18.4102 14.9965 17.6448 15.5206C16.8794 16.0447 16.2904 16.7879 15.955 17.6528C15.6196 18.5176 15.5535 19.4636 15.7653 20.3667C15.9772 21.2698 16.4571 22.0877 17.1422 22.7132C16.2399 23.1033 15.4203 23.6618 14.7272 24.3588C14.034 23.6618 13.2144 23.1033 12.3122 22.7132C12.9972 22.0877 13.4772 21.2698 13.689 20.3667C13.9009 19.4636 13.8348 18.5176 13.4994 17.6528C13.164 16.7879 12.5749 16.0447 11.8095 15.5206C11.0442 14.9965 10.1382 14.7161 9.21063 14.7161C8.28303 14.7161 7.37709 14.9965 6.61172 15.5206C5.84635 16.0447 5.2573 16.7879 4.92189 17.6528C4.58647 18.5176 4.52036 19.4636 4.73223 20.3667C4.9441 21.2698 5.42404 22.0877 6.10908 22.7132C4.85403 23.2533 3.76274 24.1134 2.94428 25.2075C2.87179 25.3042 2.81905 25.4142 2.78907 25.5312C2.75908 25.6482 2.75244 25.77 2.76953 25.8896C2.78662 26.0092 2.82709 26.1243 2.88865 26.2283C2.9502 26.3322 3.03163 26.423 3.12828 26.4955C3.22494 26.568 3.33492 26.6208 3.45196 26.6508C3.56899 26.6807 3.69079 26.6874 3.81039 26.6703C3.92999 26.6532 4.04506 26.6127 4.14902 26.5512C4.25298 26.4896 4.34379 26.4082 4.41628 26.3115C4.9733 25.5688 5.69559 24.966 6.52595 24.5509C7.3563 24.1357 8.27192 23.9195 9.20028 23.9195C10.1286 23.9195 11.0443 24.1357 11.8746 24.5509C12.705 24.966 13.4273 25.5688 13.9843 26.3115C14.1309 26.5066 14.3489 26.6354 14.5904 26.6697C14.832 26.704 15.0772 26.6409 15.2723 26.4944C15.3418 26.4427 15.4034 26.3811 15.4551 26.3115C16.0122 25.5688 16.7344 24.966 17.5648 24.5509C18.3952 24.1357 19.3108 23.9195 20.2391 23.9195C21.1675 23.9195 22.0831 24.1357 22.9135 24.5509C23.7438 24.966 24.4661 25.5688 25.0231 26.3115C25.1697 26.5067 25.3878 26.6357 25.6294 26.6701C25.8711 26.7045 26.1165 26.6415 26.3117 26.495C26.5069 26.3484 26.6359 26.1303 26.6703 25.8887C26.7047 25.647 26.6417 25.4016 26.4951 25.2064C25.6808 24.1147 24.5948 23.2551 23.3453 22.7132ZM9.20028 16.5595C9.74616 16.5595 10.2798 16.7214 10.7337 17.0247C11.1875 17.328 11.5413 17.759 11.7502 18.2633C11.9591 18.7677 12.0137 19.3226 11.9073 19.858C11.8008 20.3934 11.5379 20.8852 11.1519 21.2712C10.7659 21.6571 10.2741 21.92 9.73873 22.0265C9.20335 22.133 8.6484 22.0783 8.14408 21.8694C7.63975 21.6605 7.2087 21.3068 6.90543 20.8529C6.60216 20.399 6.44028 19.8654 6.44028 19.3195C6.44028 18.5875 6.73107 17.8855 7.24867 17.3679C7.76627 16.8503 8.46829 16.5595 9.20028 16.5595ZM20.2403 16.5595C20.7862 16.5595 21.3198 16.7214 21.7737 17.0247C22.2275 17.328 22.5813 17.759 22.7902 18.2633C22.9991 18.7677 23.0537 19.3226 22.9473 19.858C22.8408 20.3934 22.5779 20.8852 22.1919 21.2712C21.8059 21.6571 21.3141 21.92 20.7787 22.0265C20.2433 22.133 19.6884 22.0783 19.1841 21.8694C18.6798 21.6605 18.2487 21.3068 17.9454 20.8529C17.6422 20.399 17.4803 19.8654 17.4803 19.3195C17.4803 18.5875 17.7711 17.8855 18.2887 17.3679C18.8063 16.8503 19.5083 16.5595 20.2403 16.5595Z" fill="#FCFCFD"/>
</svg>
